<?xml version="1.0" encoding="UTF-8" standalone="no"?>
<svg
   xmlns:dc="http://purl.org/dc/elements/1.1/"
   xmlns:cc="http://creativecommons.org/ns#"
   xmlns:rdf="http://www.w3.org/1999/02/22-rdf-syntax-ns#"
   xmlns:svg="http://www.w3.org/2000/svg"
   xmlns="http://www.w3.org/2000/svg"
   xmlns:sodipodi="http://sodipodi.sourceforge.net/DTD/sodipodi-0.dtd"
   xmlns:inkscape="http://www.inkscape.org/namespaces/inkscape"
   id="svg8"
   version="1.1"
   viewBox="0 0 229.94155 197.07802"
   height="197.07802mm"
   width="229.94154mm"
   sodipodi:docname="atan2defn.svg"
   inkscape:version="0.92.3 (2405546, 2018-03-11)">
  <sodipodi:namedview
     pagecolor="#ffffff"
     bordercolor="#666666"
     borderopacity="1"
     objecttolerance="10"
     gridtolerance="10"
     guidetolerance="10"
     inkscape:pageopacity="0"
     inkscape:pageshadow="2"
     inkscape:window-width="1920"
     inkscape:window-height="1001"
     id="namedview31"
     showgrid="false"
     inkscape:zoom="0.89615121"
     inkscape:cx="714.65425"
     inkscape:cy="310.95668"
     inkscape:window-x="-9"
     inkscape:window-y="-9"
     inkscape:window-maximized="1"
     inkscape:current-layer="svg8" />
  <defs
     id="defs2">
    <marker
       style="overflow:visible"
       id="Arrow2Mstart"
       refX="0.0"
       refY="0.0"
       orient="auto">
      <path
         transform="scale(0.6) translate(0,0)"
         d="M 8.7185878,4.0337352 L -2.2072895,0.016013256 L 8.7185884,-4.0017078 C 6.9730900,-1.6296469 6.9831476,1.6157441 8.7185878,4.0337352 z "
         style="fill-rule:evenodd;stroke-width:0.625;stroke-linejoin:round;stroke:#006e00;stroke-opacity:1;fill:#006e00;fill-opacity:1"
         id="path1168" />
    </marker>
    <marker
       style="overflow:visible"
       id="Arrow1Sstart"
       refX="0"
       refY="0"
       orient="auto">
      <path
         transform="matrix(0.2,0,0,0.2,1.2,0)"
         style="fill:#000000;fill-opacity:1;fill-rule:evenodd;stroke:#000000;stroke-width:1.00000003pt;stroke-opacity:1"
         d="M 0,0 5,-5 -12.5,0 5,5 Z"
         id="path4534" />
    </marker>
    <marker
       style="overflow:visible"
       id="Arrow1Mstart"
       refX="0"
       refY="0"
       orient="auto">
      <path
         transform="matrix(0.4,0,0,0.4,4,0)"
         style="fill:#000000;fill-opacity:1;fill-rule:evenodd;stroke:#000000;stroke-width:1.00000003pt;stroke-opacity:1"
         d="M 0,0 5,-5 -12.5,0 5,5 Z"
         id="path4528" />
    </marker>
    <marker
       orient="auto"
       refY="0"
       refX="0"
       id="marker6981"
       style="overflow:visible">
      <path
         id="path6979"
         d="M 0,0 5,-5 -12.5,0 5,5 Z"
         style="fill:#000000;fill-opacity:1;fill-rule:evenodd;stroke:#000000;stroke-width:1.00000003pt;stroke-opacity:1"
         transform="matrix(-0.8,0,0,-0.8,-10,0)" />
    </marker>
    <marker
       orient="auto"
       refY="0"
       refX="0"
       id="marker5427"
       style="overflow:visible">
      <path
         id="path5425"
         d="M 0,0 5,-5 -12.5,0 5,5 Z"
         style="fill:#000000;fill-opacity:1;fill-rule:evenodd;stroke:#000000;stroke-width:1.00000003pt;stroke-opacity:1"
         transform="matrix(0.8,0,0,0.8,10,0)" />
    </marker>
    <marker
       style="overflow:visible"
       id="Arrow1Lstart"
       refX="0"
       refY="0"
       orient="auto">
      <path
         transform="matrix(0.8,0,0,0.8,10,0)"
         style="fill:#000000;fill-opacity:1;fill-rule:evenodd;stroke:#000000;stroke-width:1.00000003pt;stroke-opacity:1"
         d="M 0,0 5,-5 -12.5,0 5,5 Z"
         id="path4522" />
    </marker>
    <marker
       style="overflow:visible"
       id="Arrow1Lend"
       refX="0"
       refY="0"
       orient="auto">
      <path
         transform="matrix(-0.8,0,0,-0.8,-10,0)"
         style="fill:#000000;fill-opacity:1;fill-rule:evenodd;stroke:#000000;stroke-width:1.00000003pt;stroke-opacity:1"
         d="M 0,0 5,-5 -12.5,0 5,5 Z"
         id="path4525" />
    </marker>
    <marker
       style="overflow:visible"
       id="Arrow1Lend-1"
       refX="0"
       refY="0"
       orient="auto">
      <path
         transform="matrix(-0.8,0,0,-0.8,-10,0)"
         style="fill:#000000;fill-opacity:1;fill-rule:evenodd;stroke:#000000;stroke-width:1.00000003pt;stroke-opacity:1"
         d="M 0,0 5,-5 -12.5,0 5,5 Z"
         id="path4525-3" />
    </marker>
  </defs>
  <metadata
     id="metadata5">
    <rdf:RDF>
      <cc:Work
         rdf:about="">
        <dc:format>image/svg+xml</dc:format>
        <dc:type
           rdf:resource="http://purl.org/dc/dcmitype/StillImage" />
        <dc:title />
      </cc:Work>
    </rdf:RDF>
  </metadata>
  <path
     inkscape:connector-curvature="0"
     style="fill:none;stroke:#000000;stroke-width:1;stroke-linecap:butt;stroke-linejoin:miter;stroke-miterlimit:4;stroke-dasharray:none;stroke-opacity:1;marker-start:url(#marker5427);marker-end:url(#Arrow1Lend)"
     d="M 99.893824,195.13665 V 1.941363"
     id="path4520" />
  <path
     inkscape:connector-curvature="0"
     style="fill:none;stroke:#000000;stroke-width:0.99999994;stroke-linecap:butt;stroke-linejoin:miter;stroke-miterlimit:4;stroke-dasharray:none;stroke-opacity:1;marker-start:url(#Arrow1Lstart);marker-end:url(#Arrow1Lend-1)"
     d="M 1.9413626,98.687424 H 198.15594"
     id="path4520-2" />
  <circle
     style="fill:#000000;fill-opacity:1;stroke:none;stroke-width:1;stroke-miterlimit:4;stroke-dasharray:none"
     id="path5645"
     cx="157.172"
     cy="28.298653"
     r="3.7797618" />
  <g
     aria-label="(x,y)"
     style="font-style:italic;font-variant:normal;font-weight:normal;font-stretch:normal;font-size:17.63888931px;line-height:1.25;font-family:sans-serif;-inkscape-font-specification:'sans-serif Italic';letter-spacing:0px;word-spacing:0px;fill:#000000;fill-opacity:1;stroke:none;stroke-width:0.26458332"
     id="text5649-6">
    <path
       d="m 162.67474,21.497154 q 0,-2.240173 0.69764,-4.023011 0.70538,-1.782837 2.16265,-3.356384 h 1.34876 q -1.44952,1.612305 -2.13165,3.426148 -0.67438,1.813843 -0.67438,3.96875 0,2.147156 0.66662,3.953247 0.67438,1.806092 2.13941,3.441651 h -1.34876 q -1.46502,-1.581299 -2.16265,-3.364136 -0.69764,-1.790589 -0.69764,-4.015259 z"
       style="font-style:normal;font-variant:normal;font-weight:normal;font-stretch:normal;font-size:15.87500095px;font-family:'Liberation Sans';-inkscape-font-specification:'Liberation Sans';stroke-width:0.26458332"
       id="path943" />
    <path
       d="m 173.20123,25.620934 -2.25567,-3.441651 -2.27118,3.441651 h -1.50379 l 2.98432,-4.309815 -2.84479,-4.077271 h 1.54254 l 2.0929,3.263367 2.07739,-3.263367 h 1.55804 l -2.84478,4.061768 3.02307,4.325318 z"
       style="font-style:normal;font-variant:normal;font-weight:normal;font-stretch:normal;font-size:15.87500095px;font-family:'Liberation Sans';-inkscape-font-specification:'Liberation Sans';stroke-width:0.26458332"
       id="path945" />
    <path
       d="m 177.91412,23.923363 v 1.302246 q 0,0.821655 -0.14727,1.372009 -0.14728,0.550354 -0.45734,1.054199 h -0.95343 q 0.72864,-1.054199 0.72864,-2.030883 h -0.68213 v -1.697571 z"
       style="font-style:normal;font-variant:normal;font-weight:normal;font-stretch:normal;font-size:15.87500095px;font-family:'Liberation Sans';-inkscape-font-specification:'Liberation Sans';stroke-width:0.26458332"
       id="path947" />
    <path
       d="m 180.81317,28.915306 q -0.57361,0 -0.96118,-0.08527 v -1.046448 q 0.29456,0.04651 0.65112,0.04651 1.30225,0 2.06189,-1.914612 l 0.13178,-0.333313 -3.32538,-8.348328 h 1.48828 l 1.76734,4.635376 q 0.0388,0.108521 0.093,0.26355 0.0543,0.147278 0.34882,1.007691 0.29456,0.860412 0.31781,0.961181 l 0.5426,-1.527038 1.8371,-5.34076 h 1.47278 l -3.22461,8.387086 q -0.51935,1.341003 -0.96893,1.992126 -0.44959,0.658875 -0.99994,0.976685 -0.54261,0.325561 -1.23249,0.325561 z"
       style="font-style:normal;font-variant:normal;font-weight:normal;font-stretch:normal;font-size:15.87500095px;font-family:'Liberation Sans';-inkscape-font-specification:'Liberation Sans';stroke-width:0.26458332"
       id="path949" />
    <path
       d="m 191.57221,21.52816 q 0,2.240173 -0.70539,4.02301 -0.69763,1.782837 -2.1549,3.356385 h -1.34876 q 1.45728,-1.627808 2.13165,-3.426148 0.67438,-1.806091 0.67438,-3.96875 0,-2.162659 -0.68213,-3.96875 -0.67437,-1.806092 -2.1239,-3.426148 h 1.34876 q 1.46502,1.581299 2.16265,3.371887 0.69764,1.782837 0.69764,4.007508 z"
       style="font-style:normal;font-variant:normal;font-weight:normal;font-stretch:normal;font-size:15.87500095px;font-family:'Liberation Sans';-inkscape-font-specification:'Liberation Sans';stroke-width:0.26458332"
       id="path951" />
  </g>
  <path
     inkscape:connector-curvature="0"
     style="fill:none;stroke:#000000;stroke-width:1;stroke-linecap:butt;stroke-linejoin:miter;stroke-miterlimit:4;stroke-dasharray:4, 4;stroke-dashoffset:0;stroke-opacity:1"
     d="M 100.47175,98.305954 157.13289,27.746801"
     id="path6965" />
  <path
     inkscape:connector-curvature="0"
     style="fill:none;fill-opacity:1;stroke:#006e00;stroke-width:1.5;stroke-miterlimit:4;stroke-dasharray:none;stroke-dashoffset:0;stroke-opacity:1;marker-start:url(#Arrow2Mstart)"
     id="path6967"
     d="m 117.32641,79.545244 a 26.707703,26.640993 0 0 1 8.22215,19.22841" />
  <g
     aria-label="θ=atan2(y,x)"
     style="font-style:normal;font-weight:normal;font-size:15.875px;line-height:1.25;font-family:sans-serif;letter-spacing:0px;word-spacing:0px;fill:#006e00;fill-opacity:1;stroke:none;stroke-width:0.26458332"
     id="text6971">
    <path
       d="m 135.23827,82.91098 q 0,2.953308 -0.93018,4.395081 -0.93018,1.441772 -2.69751,1.441772 -1.73633,0 -2.651,-1.472778 -0.90692,-1.48053 -0.90692,-4.364075 0,-5.813598 3.60443,-5.813598 1.8526,0 2.71301,1.434021 0.86817,1.426269 0.86817,4.379577 z m -3.64319,4.805908 q 1.10846,0 1.62005,-1.054199 0.5116,-1.06195 0.55036,-3.286621 h -4.24005 q 0.0387,2.139404 0.53485,3.240112 0.50384,1.100708 1.53479,1.100708 z m 0.0853,-9.619567 q -1.1007,0 -1.60455,1.038696 -0.50384,1.030945 -0.55035,3.224609 h 4.24005 q -0.0388,-2.193664 -0.5271,-3.224609 -0.48059,-1.038696 -1.55805,-1.038696 z"
       style="font-style:normal;font-variant:normal;font-weight:normal;font-stretch:normal;font-size:15.875px;font-family:'Liberation Sans';-inkscape-font-specification:'Liberation Sans';fill:#006e00;fill-opacity:1;stroke-width:0.26458332"
       id="path954" />
    <path
       d="m 136.84282,81.95755 v -1.147217 h 7.71271 v 1.147217 z m 0,3.96875 v -1.147217 h 7.71271 V 85.9263 Z"
       style="font-style:normal;font-variant:normal;font-weight:normal;font-stretch:normal;font-size:15.875px;font-family:'Liberation Sans';-inkscape-font-specification:'Liberation Sans';fill:#006e00;fill-opacity:1;stroke-width:0.26458332"
       id="path956" />
    <path
       d="m 148.54753,88.747833 q -1.26349,0 -1.89911,-0.666626 -0.63562,-0.666626 -0.63562,-1.829345 0,-1.302247 0.85266,-1.999878 0.86042,-0.697632 2.76728,-0.744141 l 1.8836,-0.03101 v -0.457336 q 0,-1.023194 -0.43408,-1.465027 -0.43408,-0.441834 -1.36426,-0.441834 -0.93792,0 -1.36426,0.31781 -0.42633,0.31781 -0.51159,1.015442 l -1.45728,-0.131775 q 0.35657,-2.263427 3.36414,-2.263427 1.5813,0 2.3797,0.728637 0.7984,0.720887 0.7984,2.092896 v 3.612183 q 0,0.620117 0.16278,0.937927 0.16278,0.310058 0.62012,0.310058 0.20153,0 0.45733,-0.05426 v 0.868164 q -0.5271,0.124024 -1.07745,0.124024 -0.77515,0 -1.13171,-0.403077 -0.34882,-0.410827 -0.39533,-1.278991 h -0.0465 q -0.53485,0.961181 -1.24798,1.364258 -0.70539,0.395324 -1.72083,0.395324 z m 0.31781,-1.046448 q 0.7674,0 1.36426,-0.348815 0.59686,-0.348816 0.93793,-0.953431 0.34881,-0.612365 0.34881,-1.255737 v -0.68988 l -1.52704,0.03101 q -0.98443,0.0155 -1.49603,0.201538 -0.50384,0.186035 -0.77515,0.573608 -0.2713,0.387573 -0.2713,1.015442 0,0.682129 0.36432,1.054199 0.37207,0.37207 1.0542,0.37207 z"
       style="font-style:normal;font-variant:normal;font-weight:normal;font-stretch:normal;font-size:15.875px;font-family:'Liberation Sans';-inkscape-font-specification:'Liberation Sans';fill:#006e00;fill-opacity:1;stroke-width:0.26458332"
       id="path958" />
    <path
       d="m 158.46941,88.530792 q -0.68988,0.186035 -1.41077,0.186035 -1.67432,0 -1.67432,-1.899108 v -5.596558 h -0.96893 v -1.015442 h 1.02319 l 0.41083,-1.875854 h 0.93018 v 1.875854 h 1.55029 v 1.015442 h -1.55029 v 5.29425 q 0,0.604615 0.19378,0.852662 0.20154,0.240295 0.68988,0.240295 0.27906,0 0.80616,-0.108521 z"
       style="font-style:normal;font-variant:normal;font-weight:normal;font-stretch:normal;font-size:15.875px;font-family:'Liberation Sans';-inkscape-font-specification:'Liberation Sans';fill:#006e00;fill-opacity:1;stroke-width:0.26458332"
       id="path960" />
    <path
       d="m 161.78703,88.747833 q -1.26349,0 -1.89911,-0.666626 -0.63562,-0.666626 -0.63562,-1.829345 0,-1.302247 0.85267,-1.999878 0.86041,-0.697632 2.76727,-0.744141 l 1.8836,-0.03101 v -0.457336 q 0,-1.023194 -0.43408,-1.465027 -0.43408,-0.441834 -1.36426,-0.441834 -0.93792,0 -1.36425,0.31781 -0.42633,0.31781 -0.5116,1.015442 l -1.45728,-0.131775 q 0.35657,-2.263427 3.36414,-2.263427 1.5813,0 2.3797,0.728637 0.7984,0.720887 0.7984,2.092896 v 3.612183 q 0,0.620117 0.16278,0.937927 0.16278,0.310058 0.62012,0.310058 0.20154,0 0.45734,-0.05426 v 0.868164 q -0.5271,0.124024 -1.07746,0.124024 -0.77515,0 -1.13171,-0.403077 -0.34882,-0.410827 -0.39533,-1.278991 h -0.0465 q -0.53485,0.961181 -1.24798,1.364258 -0.70539,0.395324 -1.72083,0.395324 z m 0.31781,-1.046448 q 0.7674,0 1.36426,-0.348815 0.59686,-0.348816 0.93793,-0.953431 0.34881,-0.612365 0.34881,-1.255737 v -0.68988 l -1.52703,0.03101 q -0.98444,0.0155 -1.49604,0.201538 -0.50384,0.186035 -0.77514,0.573608 -0.2713,0.387573 -0.2713,1.015442 0,0.682129 0.36431,1.054199 0.37207,0.37207 1.0542,0.37207 z"
       style="font-style:normal;font-variant:normal;font-weight:normal;font-stretch:normal;font-size:15.875px;font-family:'Liberation Sans';-inkscape-font-specification:'Liberation Sans';fill:#006e00;fill-opacity:1;stroke-width:0.26458332"
       id="path962" />
    <path
       d="m 173.80956,88.592804 v -5.317505 q 0,-0.829407 -0.16279,-1.286743 -0.16278,-0.457337 -0.51934,-0.658875 -0.35657,-0.201538 -1.04645,-0.201538 -1.00769,0 -1.58905,0.689881 -0.58136,0.68988 -0.58136,1.914611 v 4.860169 h -1.39527 v -6.596497 q 0,-1.465026 -0.0465,-1.790588 h 1.31774 q 0.008,0.03876 0.0155,0.20929 0.008,0.170532 0.0155,0.395324 0.0155,0.217041 0.031,0.829407 h 0.0233 q 0.48059,-0.868164 1.10846,-1.224731 0.63562,-0.364319 1.57355,-0.364319 1.37976,0 2.01538,0.68988 0.64337,0.682129 0.64337,2.263428 v 5.588806 z"
       style="font-style:normal;font-variant:normal;font-weight:normal;font-stretch:normal;font-size:15.875px;font-family:'Liberation Sans';-inkscape-font-specification:'Liberation Sans';fill:#006e00;fill-opacity:1;stroke-width:0.26458332"
       id="path964" />
    <path
       d="m 177.04967,88.592804 v -0.984436 q 0.39532,-0.906921 0.96118,-1.596802 0.57361,-0.697632 1.20148,-1.255737 0.62786,-0.565857 1.24023,-1.046448 0.62012,-0.480591 1.11621,-0.961182 0.4961,-0.48059 0.7984,-1.00769 0.31006,-0.5271 0.31006,-1.193726 0,-0.899169 -0.5271,-1.395263 -0.5271,-0.496094 -1.46503,-0.496094 -0.89141,0 -1.47277,0.488342 -0.57361,0.480591 -0.67438,1.356507 L 177.11168,80.3685 q 0.15503,-1.309998 1.10846,-2.085144 0.96118,-0.775147 2.46496,-0.775147 1.65107,0 2.53473,0.782898 0.89142,0.775147 0.89142,2.209168 0,0.63562 -0.29455,1.263488 -0.28681,0.627869 -0.86042,1.255738 -0.5736,0.627868 -2.19366,1.945617 -0.89142,0.728638 -1.41852,1.317749 -0.5271,0.58136 -0.75964,1.123963 h 5.69732 v 1.185974 z"
       style="font-style:normal;font-variant:normal;font-weight:normal;font-stretch:normal;font-size:15.875px;font-family:'Liberation Sans';-inkscape-font-specification:'Liberation Sans';fill:#006e00;fill-opacity:1;stroke-width:0.26458332"
       id="path966" />
    <path
       d="m 186.07237,84.469025 q 0,-2.240174 0.69763,-4.023011 0.70539,-1.782837 2.16266,-3.356384 h 1.34876 q -1.44953,1.612305 -2.13165,3.426148 -0.67438,1.813842 -0.67438,3.96875 0,2.147155 0.66662,3.953247 0.67438,1.806091 2.13941,3.44165 h -1.34876 q -1.46502,-1.581299 -2.16266,-3.364136 -0.69763,-1.790588 -0.69763,-4.015258 z"
       style="font-style:normal;font-variant:normal;font-weight:normal;font-stretch:normal;font-size:15.875px;font-family:'Liberation Sans';-inkscape-font-specification:'Liberation Sans';fill:#006e00;fill-opacity:1;stroke-width:0.26458332"
       id="path968" />
    <path
       d="m 191.87047,91.887177 q -0.57361,0 -0.96118,-0.08527 v -1.046447 q 0.29455,0.04651 0.65112,0.04651 1.30225,0 2.06189,-1.914611 l 0.13177,-0.333313 -3.32537,-8.348328 h 1.48828 l 1.76733,4.635376 q 0.0388,0.10852 0.093,0.26355 0.0543,0.147278 0.34881,1.00769 0.29456,0.860413 0.31781,0.961182 l 0.54261,-1.527039 1.83709,-5.340759 h 1.47278 l -3.22461,8.387085 q -0.51935,1.341003 -0.96893,1.992126 -0.44958,0.658875 -0.99994,0.976685 -0.5426,0.325562 -1.23248,0.325562 z"
       style="font-style:normal;font-variant:normal;font-weight:normal;font-stretch:normal;font-size:15.875px;font-family:'Liberation Sans';-inkscape-font-specification:'Liberation Sans';fill:#006e00;fill-opacity:1;stroke-width:0.26458332"
       id="path970" />
    <path
       d="m 200.13353,86.895233 v 1.302246 q 0,0.821656 -0.14728,1.37201 -0.14728,0.550354 -0.45733,1.054199 h -0.95343 q 0.72863,-1.054199 0.72863,-2.030884 h -0.68213 v -1.697571 z"
       style="font-style:normal;font-variant:normal;font-weight:normal;font-stretch:normal;font-size:15.875px;font-family:'Liberation Sans';-inkscape-font-specification:'Liberation Sans';fill:#006e00;fill-opacity:1;stroke-width:0.26458332"
       id="path972" />
    <path
       d="m 207.76097,88.592804 -2.25568,-3.44165 -2.27117,3.44165 h -1.50379 l 2.98432,-4.309814 -2.84479,-4.077271 h 1.54254 l 2.09289,3.263367 2.0774,-3.263367 h 1.55804 l -2.84479,4.061768 3.02308,4.325317 z"
       style="font-style:normal;font-variant:normal;font-weight:normal;font-stretch:normal;font-size:15.875px;font-family:'Liberation Sans';-inkscape-font-specification:'Liberation Sans';fill:#006e00;fill-opacity:1;stroke-width:0.26458332"
       id="path974" />
    <path
       d="m 213.79161,84.500031 q 0,2.240173 -0.70538,4.02301 -0.69763,1.782837 -2.15491,3.356384 h -1.34875 q 1.45727,-1.627808 2.13165,-3.426147 0.67438,-1.806092 0.67438,-3.96875 0,-2.162659 -0.68213,-3.96875 -0.67438,-1.806092 -2.1239,-3.426148 h 1.34875 q 1.46503,1.581299 2.16266,3.371887 0.69763,1.782837 0.69763,4.007508 z"
       style="font-style:normal;font-variant:normal;font-weight:normal;font-stretch:normal;font-size:15.875px;font-family:'Liberation Sans';-inkscape-font-specification:'Liberation Sans';fill:#006e00;fill-opacity:1;stroke-width:0.26458332"
       id="path976" />
  </g>
</svg>
